# Blender v2.74 (sub 0) OBJ File: 'basic_stool.blend'
# www.blender.org
mtllib basic_stool.mtl
o bamboo_stool
v 0.489575 0.984012 -0.277245
v 0.286201 0.984012 -0.480619
v 0.296826 1.030834 -0.499024
v 0.507980 1.030834 -0.287870
v 0.008386 0.984012 -0.555060
v 0.008386 1.030834 -0.576310
v -0.269429 0.984012 -0.480619
v -0.280054 1.030834 -0.499024
v -0.472804 0.984012 -0.277245
v -0.491208 1.030834 -0.287870
v -0.547244 0.984012 0.000570
v -0.568495 1.030834 0.000570
v -0.472804 0.984012 0.278385
v -0.491208 1.030834 0.289010
v -0.269429 0.984012 0.481760
v -0.280054 1.030834 0.500164
v 0.008386 0.984012 0.556200
v 0.008386 1.030834 0.577451
v 0.286201 0.984012 0.481760
v 0.296826 1.030834 0.500164
v 0.489575 0.984012 0.278385
v 0.507980 1.030834 0.289010
v 0.564016 0.984012 0.000570
v 0.585266 1.030834 0.000570
v 0.277219 1.072357 0.466203
v -0.260447 1.072357 0.466203
v 0.008386 1.072357 0.538236
v -0.457247 1.072357 -0.268263
v 0.474019 1.072357 -0.268263
v 0.277219 1.072357 -0.465063
v -0.260447 1.072357 -0.465063
v -0.529280 1.072357 0.000570
v 0.546052 1.072357 0.000570
v 0.008386 1.072357 -0.537096
v -0.457247 1.072357 0.269403
v 0.474019 1.072357 0.269403
v 0.039913 1.067714 0.089310
v 0.010069 1.111877 -0.000649
v -0.217477 1.094212 0.524105
v -0.143527 1.069786 0.502900
v -0.063227 1.067714 0.059443
v -0.260804 1.067030 0.469170
v 0.038939 1.067714 -0.100347
v 0.467242 1.098903 -0.341733
v 0.388398 1.069314 -0.370604
v 0.109025 1.067714 0.000718
v 0.461276 1.069313 -0.264463
v -0.117604 1.070266 -0.508132
v -0.174091 1.097950 -0.506157
v -0.074306 1.067714 -0.052371
v -0.219545 1.070266 -0.482245
v 0.450730 1.095368 0.326218
v 0.477895 1.068266 0.270625
v 0.403307 1.069410 0.353256
v -0.529134 1.098599 0.043054
v -0.505486 1.069617 0.096497
v -0.524963 1.069617 -0.010388
v -0.237479 0.973845 0.584715
v -0.146011 0.989143 0.505686
v -0.262513 0.989879 0.467436
v 0.516371 0.973839 -0.375897
v 0.387475 0.986166 -0.368193
v 0.455514 0.985623 -0.270673
v -0.119993 0.973256 -0.526687
v -0.201432 0.993510 -0.600734
v -0.219750 0.973256 -0.484851
v 0.465174 0.985493 0.269356
v 0.512214 0.984140 0.375659
v 0.560927 -0.027334 0.420983
v 0.544928 -0.069881 0.318683
v 0.397222 0.986005 0.355390
v 0.457061 -0.070790 0.438537
v -0.625153 1.022462 0.052108
v -0.509827 0.999314 0.095322
v -0.523759 0.999314 -0.009672
v 0.540950 -0.069881 -0.322384
v 0.543976 -0.027336 -0.404518
v 0.452391 -0.069881 -0.441520
v -0.161351 -0.071695 -0.628192
v -0.246952 -0.027336 -0.655415
v -0.291021 -0.071695 -0.573258
v -0.637213 -0.071695 -0.052319
v -0.678194 -0.027336 0.017987
v -0.623933 -0.071695 0.081713
v -0.236470 -0.069881 0.566472
v -0.184149 -0.027336 0.652938
v -0.095369 -0.069881 0.612755
v 0.187273 0.987587 0.498638
v 0.194000 0.987699 -0.500175
v -0.397270 0.991343 -0.322165
v -0.415388 0.991389 0.311045
vt 0.993542 0.304928
vt 0.995093 0.453039
vt 0.968838 0.452772
vt 0.967280 0.304817
vt 0.993194 0.601055
vt 0.967986 0.602485
vt 0.994680 0.753857
vt 0.968630 0.753232
vt 0.992318 0.904797
vt 0.966128 0.905169
vt 0.915395 0.008843
vt 0.916072 0.154188
vt 0.889996 0.154202
vt 0.889205 0.008843
vt 0.916443 0.301986
vt 0.890542 0.303106
vt 0.915199 0.449611
vt 0.889150 0.449184
vt 0.913125 0.596397
vt 0.887809 0.596755
vt 0.913772 0.751233
vt 0.888488 0.751378
vt 0.914510 0.906067
vt 0.889226 0.905637
vt 0.991433 0.008843
vt 0.994066 0.157047
vt 0.967832 0.156953
vt 0.966149 0.008843
vt 0.614623 0.320652
vt 0.615880 0.447603
vt 0.627687 0.382259
vt 0.420766 0.510097
vt 0.417536 0.267110
vt 0.367946 0.318853
vt 0.369022 0.459142
vt 0.489017 0.530921
vt 0.517392 0.242452
vt 0.349689 0.389141
vt 0.561055 0.509021
vt 0.559190 0.269284
vt 0.860872 0.750871
vt 0.860335 0.595729
vt 0.860718 0.448736
vt 0.862068 0.301776
vt 0.861709 0.154055
vt 0.861108 0.008843
vt 0.938031 0.903238
vt 0.940291 0.752070
vt 0.939992 0.599536
vt 0.940174 0.452497
vt 0.938557 0.304769
vt 0.939111 0.156579
vt 0.938532 0.008843
vt 0.861609 0.905294
vt 0.844819 0.622833
vt 0.816590 0.647812
vt 0.819935 0.430161
vt 0.845114 0.437745
vt 0.790395 0.621019
vt 0.790684 0.431944
vt 0.844914 0.622936
vt 0.816581 0.648788
vt 0.819662 0.427131
vt 0.845180 0.432801
vt 0.790266 0.621167
vt 0.790634 0.432590
vt 0.816469 0.650636
vt 0.790360 0.621062
vt 0.790617 0.447695
vt 0.819430 0.451229
vt 0.844862 0.623402
vt 0.844979 0.446889
vt 0.844821 0.623172
vt 0.816210 0.648793
vt 0.819568 0.444789
vt 0.845151 0.440632
vt 0.791081 0.445260
vt 0.816118 0.650095
vt 0.819493 0.447294
vt 0.845149 0.446085
vt 0.790800 0.445450
vt 0.820113 0.384249
vt 0.845245 0.396381
vt 0.790538 0.395179
vt 0.819780 0.382710
vt 0.845308 0.393536
vt 0.790649 0.392191
vt 0.790524 0.400210
vt 0.819225 0.400628
vt 0.845095 0.404480
vt 0.845219 0.405106
vt 0.820126 0.399391
vt 0.822461 0.033140
vt 0.845643 0.010742
vt 0.790792 0.407633
vt 0.791244 0.010606
vt 0.819774 0.420176
vt 0.845228 0.424293
vt 0.790604 0.427454
vt 0.791264 0.010640
vt 0.822396 0.032748
vt 0.845641 0.010768
vt 0.791269 0.010671
vt 0.822456 0.033032
vt 0.822459 0.032925
vt 0.822470 0.033269
vt 0.631810 0.421913
vt 0.631810 0.335678
vt 0.350019 0.337618
vt 0.346607 0.424900
vt 0.579389 0.509227
vt 0.399562 0.505190
vt 0.469675 0.532181
vt 0.499827 0.534321
vt 0.621173 0.449306
vt 0.359233 0.454701
vt 0.591770 0.282488
vt 0.564224 0.262577
vt 0.416891 0.261190
vt 0.389510 0.279855
vt 0.845505 0.028342
vt 0.847972 0.572010
vt 0.786567 0.571974
vt 0.773610 0.028319
vt 0.795951 0.424303
vt 0.796651 0.015100
vt 0.840323 0.013398
vt 0.842867 0.420365
vt 0.836303 0.012524
vt 0.835822 0.555323
vt 0.799751 0.555535
vt 0.795602 0.009134
vt 0.801010 0.554510
vt 0.802504 0.007099
vt 0.847123 0.007785
vt 0.840606 0.554675
vt 0.490260 0.239080
vt 0.803883 0.570170
vt 0.833891 0.571322
vt 0.840289 0.014214
vt 0.799767 0.012496
vn 0.788600 -0.413300 -0.455300
vn 0.455300 -0.413300 -0.788600
vn 0.492100 0.177500 -0.852300
vn 0.852300 0.177500 -0.492100
vn 0.000000 -0.413300 -0.910600
vn 0.000000 0.177500 -0.984100
vn -0.455300 -0.413300 -0.788600
vn -0.492100 0.177500 -0.852300
vn -0.788600 -0.413300 -0.455300
vn -0.852300 0.177500 -0.492100
vn -0.910600 -0.413300 -0.000000
vn -0.984100 0.177500 -0.000000
vn -0.788600 -0.413300 0.455300
vn -0.852300 0.177500 0.492100
vn -0.455300 -0.413300 0.788600
vn -0.492100 0.177500 0.852300
vn 0.000000 -0.413300 0.910600
vn -0.000000 0.177500 0.984100
vn 0.455300 -0.413300 0.788600
vn 0.492100 0.177500 0.852300
vn 0.788600 -0.413300 0.455300
vn 0.852300 0.177500 0.492100
vn 0.910600 -0.413300 -0.000000
vn 0.984100 0.177500 0.000000
vn 0.052400 0.994500 0.090800
vn -0.052400 0.994500 0.090800
vn -0.000000 0.910100 0.414300
vn -0.054100 0.998000 -0.031300
vn 0.054100 0.998000 -0.031300
vn 0.052400 0.994500 -0.090800
vn -0.052400 0.994500 -0.090800
vn -0.054300 0.998500 0.000000
vn 0.054300 0.998500 0.000000
vn 0.000000 0.910100 -0.414300
vn -0.054100 0.998000 0.031300
vn 0.054100 0.998000 0.031300
vn 0.087400 0.931600 0.352800
vn 0.010500 0.999900 0.005700
vn -0.149200 0.943000 0.297300
vn 0.562800 0.748300 0.351200
vn -0.280800 0.943100 0.178300
vn -0.732500 0.659500 -0.168900
vn 0.078100 0.941900 -0.326600
vn 0.249200 0.938900 -0.237600
vn -0.293800 0.732400 -0.614200
vn 0.348700 0.937200 0.008400
vn 0.490300 0.715400 0.497800
vn 0.601100 0.719500 -0.347800
vn -0.094700 0.976900 -0.191500
vn -0.307000 0.928600 -0.208600
vn -0.712000 0.693800 0.107900
vn 0.218600 0.970000 0.106500
vn 0.526400 0.684900 -0.503800
vn -0.346400 0.681100 0.645100
vn -0.204900 0.978700 0.008900
vn -0.055700 0.706300 0.705700
vn -0.176700 0.700000 -0.692000
vn -0.331200 -0.044100 0.942500
vn 0.557000 -0.000500 0.830500
vn -0.933300 -0.093200 0.346900
vn 0.798100 -0.030800 -0.601700
vn -0.243100 0.287600 -0.926400
vn 0.747900 0.362400 0.556200
vn 0.513800 0.005300 -0.857900
vn -0.370300 -0.033600 -0.928300
vn -0.954100 0.004700 -0.299400
vn 0.953200 -0.056900 -0.297000
vn 0.802400 -0.045900 0.595100
vn 0.801700 -0.020700 0.597300
vn 0.966400 0.017200 -0.256500
vn -0.028800 -0.029300 0.999200
vn 0.012100 0.030000 0.999500
vn -0.983700 -0.060900 0.169400
vn -0.119900 0.453900 0.882900
vn -0.560700 0.037500 -0.827200
vn 0.515400 -0.685600 0.514200
vn 0.817200 -0.015900 -0.576100
vn -0.844400 -0.073900 -0.530600
vn 0.475400 0.017900 -0.879600
vn -0.378200 -0.004300 -0.925700
vn -0.945000 0.049500 -0.323300
vn -0.262000 -0.595300 -0.759600
vn -0.996000 -0.003000 0.089000
vn 0.505200 -0.102300 0.856900
vn -0.915900 -0.025400 0.400700
vn -0.292100 -0.023800 0.956100
vn 0.526100 0.065900 0.847900
vn 0.102800 -0.874100 0.474700
vn -0.011700 -0.999900 0.004000
vn -0.001100 -1.000000 -0.003900
vn 0.158300 -0.929000 -0.334500
vn 0.206400 -0.978200 0.020600
vn 0.119600 -0.975400 0.185100
vn -0.126500 -0.789400 -0.600700
vn -0.074700 -0.776300 0.626000
vn 0.300300 -0.880700 0.366400
vn 0.122500 -0.961000 -0.248100
vn 0.093100 -0.984900 0.145900
vn -0.355000 -0.795700 -0.490800
vn -0.381100 -0.799600 0.464200
vn 0.122400 -0.980100 -0.156400
vn 0.071500 -0.250800 0.965400
vn 0.640200 -0.254600 0.724800
vn 0.259600 0.123200 -0.957800
vn 0.388000 0.235300 -0.891100
vn -0.414100 -0.878700 0.237500
vn -0.662600 -0.046600 -0.747500
vn -0.595700 -0.663100 -0.453100
vn -0.933100 -0.226400 -0.279500
vn -0.525500 -0.237000 -0.817100
usemtl None
s 1
f 1/1/1 2/2/2 3/3/3 4/4/4
f 2/2/2 5/5/5 6/6/6 3/3/3
f 5/5/5 7/7/7 8/8/8 6/6/6
f 7/7/7 9/9/9 10/10/10 8/8/8
f 9/11/9 11/12/11 12/13/12 10/14/10
f 11/12/11 13/15/13 14/16/14 12/13/12
f 13/15/13 15/17/15 16/18/16 14/16/14
f 15/17/15 17/19/17 18/20/18 16/18/16
f 17/19/17 19/21/19 20/22/20 18/20/18
f 19/21/19 21/23/21 22/24/22 20/22/20
f 21/25/21 23/26/23 24/27/24 22/28/22
f 23/26/23 1/1/1 4/4/4 24/27/24
f 25/29/25 26/30/26 27/31/27
f 28/32/28 29/33/29 30/34/30 31/35/31
f 32/36/32 33/37/33 29/33/29 28/32/28
f 31/35/31 30/34/30 34/38/34
f 32/36/32 35/39/35 36/40/36 33/37/33
f 36/40/36 35/39/35 26/30/26 25/29/25
f 18/20/18 20/22/20 25/41/25 27/42/27
f 16/18/16 18/20/18 27/42/27 26/43/26
f 14/16/14 16/18/16 26/43/26 35/44/35
f 12/13/12 14/16/14 35/44/35 32/45/32
f 10/14/10 12/13/12 32/45/32 28/46/28
f 8/8/8 10/10/10 28/47/28 31/48/31
f 6/6/6 8/8/8 31/48/31 34/49/34
f 3/3/3 6/6/6 34/49/34 30/50/30
f 4/4/4 3/3/3 30/50/30 29/51/29
f 24/27/24 4/4/4 29/51/29 33/52/33
f 22/28/22 24/27/24 33/52/33 36/53/36
f 20/22/20 22/24/22 36/54/36 25/41/25
f 37/55/37 38/56/38 39/57/39 40/58/40
f 38/56/38 41/59/41 42/60/42 39/57/39
f 43/61/43 38/62/38 44/63/44 45/64/45
f 38/62/38 46/65/46 47/66/47 44/63/44
f 38/67/38 43/68/43 48/69/48 49/70/49
f 50/71/50 38/67/38 49/70/49 51/72/51
f 46/73/46 38/74/38 52/75/52 53/76/53
f 38/74/38 37/59/37 54/77/54 52/75/52
f 41/73/41 38/78/38 55/79/55 56/80/56
f 38/78/38 50/65/50 57/81/57 55/79/55
f 40/58/40 39/57/39 58/82/58 59/83/59
f 39/57/39 42/60/42 60/84/60 58/82/58
f 45/64/45 44/63/44 61/85/61 62/86/62
f 44/63/44 47/66/47 63/87/63 61/85/61
f 49/70/49 48/69/48 64/88/64 65/89/65
f 51/72/51 49/70/49 65/89/65 66/90/66
f 67/91/67 68/92/68 69/93/69 70/94/70
f 68/92/68 71/95/71 72/96/72 69/93/69
f 56/80/56 55/79/55 73/97/73 74/98/74
f 55/79/55 57/81/57 75/99/75 73/97/73
f 53/76/53 52/75/52 68/92/68 67/91/67
f 52/75/52 54/77/54 71/95/71 68/92/68
f 61/85/61 63/87/63 76/100/76 77/101/77
f 62/86/62 61/85/61 77/101/77 78/102/78
f 65/89/65 64/88/64 79/103/79 80/104/80
f 66/90/66 65/89/65 80/104/80 81/102/81
f 73/97/73 75/99/75 82/103/82 83/105/83
f 74/98/74 73/97/73 83/105/83 84/102/84
f 58/82/58 60/84/60 85/100/85 86/106/86
f 59/83/59 58/82/58 86/106/86 87/102/87
f 64/107/88 89/108/89 88/109/90 59/110/91
f 78/102/78 77/101/77 76/100/76
f 81/102/81 80/104/80 79/103/79
f 84/102/84 83/105/83 82/103/82
f 87/102/87 86/106/86 85/100/85
f 70/94/70 69/93/69 72/96/72
f 90/111/92 91/112/93 74/113/94 75/114/95
f 91/112/93 90/111/92 66/115/96 60/116/97
f 62/117/98 63/118/99 67/119/100 71/120/101
f 66/115/96 64/107/88 59/110/91 60/116/97
f 89/108/89 62/117/98 71/120/101 88/109/90
f 79/121/102 64/122/88 66/123/96 81/124/103
f 74/125/74 84/126/84 82/127/82 75/128/75
f 85/129/104 60/130/97 59/131/91 87/132/105
f 62/133/62 78/134/78 76/135/76 63/136/63
f 63/118/99 23/137/106 67/119/100
f 71/138/107 67/139/108 70/140/109 72/141/110
o bamboo_stool_coll
v 0.267746 -0.097498 -0.646395
v -0.267746 -0.097498 -0.646395
v -0.243557 1.127171 -0.587997
v 0.243557 1.127171 -0.587997
v -0.646395 -0.097498 -0.267746
v -0.587998 1.127171 -0.243557
v -0.646395 -0.097498 0.267746
v -0.587998 1.127171 0.243557
v -0.267746 -0.097499 0.646395
v -0.243557 1.127171 0.587998
v 0.267746 -0.097499 0.646395
v 0.243557 1.127171 0.587998
v 0.646395 -0.097498 0.267746
v 0.587998 1.127171 0.243557
v 0.646395 -0.097498 -0.267746
v 0.587998 1.127171 -0.243557
vt 0.375000 0.312500
vt 0.406250 0.312500
vt 0.406250 0.688440
vt 0.375000 0.688440
vt 0.437500 0.312500
vt 0.437500 0.688440
vt 0.468750 0.312500
vt 0.468750 0.688440
vt 0.500000 0.312500
vt 0.500000 0.688440
vt 0.531250 0.312500
vt 0.531250 0.688440
vt 0.562500 0.312500
vt 0.562500 0.688440
vt 0.593750 0.312500
vt 0.593750 0.688440
vt 0.625000 0.312500
vt 0.625000 0.688440
vt 0.610485 0.266735
vt 0.610485 0.045765
vt 0.656250 0.156250
vt 0.389515 0.733265
vt 0.500000 1.000000
vt 0.389515 0.954235
vt 0.343750 0.843750
vt 0.389515 0.266735
vt 0.500000 0.000000
vt 0.343750 0.156250
vt 0.389515 0.045765
vt 0.656250 0.843750
vt 0.610485 0.954235
vt 0.500000 0.687500
vt 0.610485 0.733265
vn 0.000000 0.047600 -0.998900
vn -0.706300 0.047600 -0.706300
vn -0.998900 0.047600 0.000000
vn -0.706300 0.047600 0.706300
vn 0.000000 0.047600 0.998900
vn 0.706300 0.047600 0.706300
vn 0.998900 0.047600 0.000000
vn 0.706300 0.047600 -0.706300
vn -0.000000 -1.000000 -0.000000
vn 0.000000 1.000000 0.000000
usemtl None_NONE
s off
f 92/142/111 93/143/111 94/144/111 95/145/111
f 93/143/112 96/146/112 97/147/112 94/144/112
f 96/146/113 98/148/113 99/149/113 97/147/113
f 98/148/114 100/150/114 101/151/114 99/149/114
f 100/150/115 102/152/115 103/153/115 101/151/115
f 102/152/116 104/154/116 105/155/116 103/153/116
f 104/154/117 106/156/117 107/157/117 105/155/117
f 106/156/118 92/158/118 95/159/118 107/157/118
s 1
f 104/160/119 102/150/119 92/161/119 106/162/119
f 101/163/120 94/164/120 97/165/120 99/166/120
f 92/161/119 102/150/119 100/167/119 93/168/119
f 93/168/119 100/167/119 98/169/119 96/170/119
f 107/171/120 95/172/120 103/173/120 105/174/120
f 103/173/120 95/172/120 94/164/120 101/163/120
o pivot3
v -0.050000 -0.050000 -0.050300
v -0.050000 0.050000 -0.050300
v 0.050000 0.050000 -0.050300
v 0.050000 -0.050000 -0.050300
v -0.050000 -0.050000 0.049700
v 0.050000 -0.050000 0.049700
v 0.050000 0.050000 0.049700
v -0.050000 0.050000 0.049700
vt 1.000000 0.000000
vt 1.000000 0.100000
vt 0.900000 0.100000
vt 0.900000 0.000000
vt 0.000000 0.000000
vt 0.100000 0.000000
vt 0.100000 0.100000
vt 0.000000 0.100000
vn 0.000000 0.000000 -1.000000
vn 0.000000 -0.000000 1.000000
vn 0.000000 -1.000000 -0.000000
vn 1.000000 -0.000000 0.000000
vn 0.000000 1.000000 0.000000
vn -1.000000 -0.000000 0.000000
usemtl None_NONE
s off
f 108/175/121 109/176/121 110/177/121 111/178/121
f 112/179/122 113/180/122 114/181/122 115/182/122
f 108/179/123 111/180/123 113/181/123 112/182/123
f 111/179/124 110/180/124 114/181/124 113/182/124
f 110/179/125 109/180/125 115/181/125 114/182/125
f 109/179/126 108/180/126 112/181/126 115/182/126
