# Blender v2.74 (sub 0) OBJ File: 'water_plane2.blend'
# www.blender.org
mtllib water_plane2.mtl
o pivot
v -0.100000 -0.100000 0.100000
v -0.100000 0.100000 0.100000
v -0.100000 -0.100000 -0.100000
v -0.100000 0.100000 -0.100000
v 0.100000 -0.100000 0.100000
v 0.100000 0.100000 0.100000
v 0.100000 -0.100000 -0.100000
v 0.100000 0.100000 -0.100000
vn -1.000000 0.000000 0.000000
vn 0.000000 0.000000 -1.000000
vn 1.000000 0.000000 0.000000
vn 0.000000 0.000000 1.000000
vn 0.000000 -1.000000 0.000000
vn 0.000000 1.000000 0.000000
usemtl None
s off
f 2//1 4//1 3//1 1//1
f 4//2 8//2 7//2 3//2
f 8//3 6//3 5//3 7//3
f 6//4 2//4 1//4 5//4
f 1//5 3//5 7//5 5//5
f 6//6 8//6 4//6 2//6
o box
v -1000.000000 -1.000000 1000.000000
v -1000.000000 1.000000 1000.000000
v -1000.000000 -1.000000 -1000.000000
v -1000.000000 1.000000 -1000.000000
v 1000.000000 -1.000000 1000.000000
v 1000.000000 1.000000 1000.000000
v 1000.000000 -1.000000 -1000.000000
v 1000.000000 1.000000 -1000.000000
vt 0.000000 0.000000
vt 25.000000 0.000000
vt 25.000000 -25.000000
vt 0.000000 -25.000000
vt -25.000000 0.000000
vt -25.000000 -25.000000
vt 0.000000 25.000000
vt 25.000000 25.000000
vt -25.000000 25.000000
vn -1.000000 0.000000 0.000000
vn 0.000000 0.000000 -1.000000
vn 1.000000 0.000000 0.000000
vn 0.000000 0.000000 1.000000
vn 0.000000 -1.000000 0.000000
vn 0.000000 1.000000 0.000000
usemtl None_water_plane_diff.tga
s off
f 10/1/7 12/2/7 11/3/7 9/4/7
f 12/1/8 16/2/8 15/3/8 11/4/8
f 16/1/9 14/5/9 13/6/9 15/4/9
f 14/1/10 10/5/10 9/6/10 13/4/10
f 9/1/11 11/7/11 15/8/11 13/2/11
f 14/1/12 16/7/12 12/9/12 10/5/12
o box_coll
v -1.000000 -1.000000 1.000000
v -1.000000 1.000000 1.000000
v -1.000000 -1.000000 -1.000000
v -1.000000 1.000000 -1.000000
v 1.000000 -1.000000 1.000000
v 1.000000 1.000000 1.000000
v 1.000000 -1.000000 -1.000000
v 1.000000 1.000000 -1.000000
vn -1.000000 0.000000 0.000000
vn 0.000000 0.000000 -1.000000
vn 1.000000 0.000000 0.000000
vn 0.000000 0.000000 1.000000
vn 0.000000 -1.000000 0.000000
vn 0.000000 1.000000 0.000000
usemtl None
s off
f 18//13 20//13 19//13 17//13
f 20//14 24//14 23//14 19//14
f 24//15 22//15 21//15 23//15
f 22//16 18//16 17//16 21//16
f 17//17 19//17 23//17 21//17
f 22//18 24//18 20//18 18//18
