# Blender v2.74 (sub 0) OBJ File: 'basic_table.blend'
# www.blender.org
mtllib basic_table.mtl
o basic_table
v 0.320793 0.001377 -0.185210
v 0.185210 0.001377 -0.320793
v 0.192293 0.029470 -0.333062
v 0.333062 0.029470 -0.192293
v 0.000000 0.001377 -0.370420
v 0.000000 0.029470 -0.384587
v -0.185210 0.001377 -0.320793
v -0.192293 0.029470 -0.333062
v -0.320793 0.001377 -0.185210
v -0.333062 0.029470 -0.192293
v -0.370420 0.001377 0.000000
v -0.384587 0.029470 0.000000
v -0.320793 0.001376 0.185210
v -0.333062 0.029470 0.192294
v -0.185210 0.001376 0.320793
v -0.192293 0.029470 0.333063
v 0.000000 0.001376 0.370420
v 0.000000 0.029470 0.384587
v 0.185210 0.001376 0.320793
v 0.192293 0.029470 0.333063
v 0.320793 0.001376 0.185210
v 0.333062 0.029470 0.192294
v 0.370420 0.001377 0.000000
v 0.384587 0.029470 0.000000
v 0.179222 0.054383 0.310422
v -0.179222 0.054383 0.310422
v 0.000000 0.054383 0.358444
v -0.310422 0.054383 -0.179222
v 0.310422 0.054383 -0.179222
v 0.179222 0.054383 -0.310422
v -0.179222 0.054383 -0.310422
v -0.358444 0.054383 0.000000
v 0.358444 0.054383 0.000000
v 0.000000 0.054383 -0.358444
v -0.310422 0.054383 0.179222
v 0.310422 0.054383 0.179222
v 0.021018 0.051597 0.059160
v 0.001122 0.078096 -0.000813
v -0.150575 0.067496 0.349024
v -0.101275 0.052841 0.334887
v -0.047742 0.051597 0.039249
v -0.179460 0.051187 0.312400
v 0.020369 0.051597 -0.067278
v 0.305904 0.070311 -0.228202
v 0.253341 0.052557 -0.247449
v 0.067093 0.051597 0.000099
v 0.301926 0.052557 -0.176689
v -0.083994 0.053129 -0.339134
v -0.121651 0.069739 -0.337818
v -0.055128 0.051597 -0.035294
v -0.151954 0.053129 -0.321877
v 0.294896 0.068190 0.217099
v 0.313006 0.051929 0.180037
v 0.263281 0.052615 0.235124
v -0.358346 0.070128 0.028323
v -0.342582 0.052740 0.063951
v -0.355566 0.052740 -0.007305
v -0.163910 -0.004724 0.389430
v -0.102931 0.004455 0.336744
v -0.180599 0.004897 0.311244
v 0.338657 -0.004727 -0.250978
v 0.252726 0.002669 -0.245842
v 0.298086 0.002343 -0.180829
v -0.085586 -0.005077 -0.351504
v -0.139878 0.007075 -0.400869
v -0.152091 -0.005077 -0.323614
v 0.304525 0.002265 0.179191
v 0.335885 0.001453 0.250060
v 0.259224 0.002572 0.236547
v -0.422359 0.024447 0.034359
v -0.345475 0.010557 0.063168
v -0.354764 0.010557 -0.006828
v 0.119258 0.003522 0.332045
v 0.123743 0.003588 -0.333830
v -0.270438 0.005775 -0.215157
v -0.282516 0.005803 0.206984
v -0.016487 1.289726 -0.041619
v 0.046233 1.287921 0.100119
v 0.036721 0.057530 0.060551
v 0.015390 0.044579 -0.075850
v -0.107090 1.290408 0.073093
v -0.101766 0.043368 0.083956
v 0.969942 1.287751 -0.556785
v 0.563193 1.287751 -0.963534
v 0.584443 1.350180 -1.000343
v 1.006750 1.350180 -0.578036
v 0.007563 1.287751 -1.112415
v 0.007563 1.350180 -1.154916
v -0.548067 1.287751 -0.963534
v -0.569318 1.350180 -1.000343
v -0.954816 1.287751 -0.556785
v -0.991625 1.350180 -0.578036
v -1.103698 1.287751 -0.001155
v -1.146198 1.350180 -0.001155
v -0.954816 1.287751 0.554475
v -0.991625 1.350180 0.575725
v -0.548067 1.287751 0.961224
v -0.569318 1.350180 0.998032
v 0.007563 1.287751 1.110105
v 0.007563 1.350180 1.152606
v 0.563193 1.287751 0.961224
v 0.584443 1.350180 0.998032
v 0.969942 1.287751 0.554475
v 1.006750 1.350180 0.575725
v 1.118823 1.287751 -0.001155
v 1.161324 1.350180 -0.001155
v 0.545229 1.405544 0.930111
v -0.530103 1.405544 0.930111
v 0.007563 1.405544 1.074177
v -0.923703 1.405544 -0.538821
v 0.938829 1.405544 -0.538821
v 0.545229 1.405544 -0.932421
v -0.530103 1.405544 -0.932421
v -1.067770 1.405544 -0.001155
v 1.082895 1.405544 -0.001155
v 0.007563 1.405544 -1.076487
v -0.923703 1.405544 0.536511
v 0.938829 1.405544 0.536511
v 0.070617 1.399353 0.176325
v 0.010929 1.458238 -0.003594
v -0.444162 1.434684 1.045915
v -0.296262 1.402116 1.003504
v -0.135663 1.399353 0.116590
v -0.530817 1.398442 0.936043
v 0.068670 1.399353 -0.202989
v 0.925275 1.440939 -0.685761
v 0.767587 1.401486 -0.743504
v 0.208842 1.399353 -0.000860
v 0.913342 1.401486 -0.531222
v -0.244418 1.402756 -1.018559
v -0.357390 1.439668 -1.014609
v -0.157821 1.399353 -0.107037
v -0.448299 1.402756 -0.966786
v 0.892251 1.436226 0.650140
v 0.946581 1.400090 0.538954
v 0.797406 1.401615 0.704215
v -1.067477 1.440533 0.083812
v -1.020182 1.401891 0.190698
v -1.059135 1.401891 -0.023072
v -0.484167 1.274195 1.167135
v -0.301230 1.294592 1.009075
v -0.534234 1.295574 0.932575
v 1.023532 1.274187 -0.754089
v 0.765741 1.290623 -0.738681
v 0.901819 1.289899 -0.543642
v -0.249195 1.273409 -1.055669
v -0.412073 1.300414 -1.203764
v -0.448709 1.273409 -0.971997
v 0.921139 1.289726 0.536416
v 1.015219 1.287921 0.749023
v 0.785235 1.290408 0.708484
v -1.259516 1.339018 0.101920
v -1.028864 1.308153 0.188349
v -1.056728 1.308153 -0.021639
v 0.365337 1.292518 0.994980
v 0.378792 1.292666 -1.002645
v -0.803750 1.297526 -0.646626
v -0.839985 1.297587 0.619795
vt 0.993542 0.304928
vt 0.995093 0.453039
vt 0.968838 0.452772
vt 0.967280 0.304817
vt 0.993194 0.601055
vt 0.967986 0.602485
vt 0.994680 0.753857
vt 0.968630 0.753232
vt 0.992318 0.904797
vt 0.966128 0.905169
vt 0.915395 0.008843
vt 0.916072 0.154188
vt 0.889996 0.154202
vt 0.889205 0.008843
vt 0.916443 0.301986
vt 0.890542 0.303106
vt 0.915199 0.449611
vt 0.889150 0.449184
vt 0.913125 0.596397
vt 0.887809 0.596755
vt 0.913772 0.751233
vt 0.888488 0.751378
vt 0.914510 0.906067
vt 0.889226 0.905637
vt 0.991433 0.008843
vt 0.994066 0.157047
vt 0.967832 0.156953
vt 0.966149 0.008843
vt 0.614623 0.320652
vt 0.615880 0.447603
vt 0.627687 0.382259
vt 0.420766 0.510097
vt 0.417536 0.267110
vt 0.367946 0.318853
vt 0.369022 0.459142
vt 0.489017 0.530921
vt 0.517392 0.242452
vt 0.349689 0.389141
vt 0.561055 0.509021
vt 0.559190 0.269284
vt 0.860872 0.750871
vt 0.860335 0.595729
vt 0.860718 0.448736
vt 0.862068 0.301776
vt 0.861709 0.154055
vt 0.861108 0.008843
vt 0.938031 0.903238
vt 0.940291 0.752070
vt 0.939992 0.599536
vt 0.940174 0.452497
vt 0.938557 0.304769
vt 0.939111 0.156579
vt 0.938532 0.008843
vt 0.861609 0.905294
vt 0.844819 0.622833
vt 0.816590 0.647812
vt 0.819935 0.430161
vt 0.845114 0.437745
vt 0.790395 0.621019
vt 0.790684 0.431944
vt 0.844914 0.622936
vt 0.816581 0.648788
vt 0.819662 0.427131
vt 0.845180 0.432801
vt 0.790266 0.621167
vt 0.790634 0.432590
vt 0.816469 0.650636
vt 0.790360 0.621062
vt 0.790617 0.447695
vt 0.819430 0.451229
vt 0.844862 0.623402
vt 0.844979 0.446889
vt 0.844821 0.623172
vt 0.816210 0.648793
vt 0.819568 0.444789
vt 0.845151 0.440632
vt 0.791081 0.445260
vt 0.816118 0.650095
vt 0.819493 0.447294
vt 0.845149 0.446085
vt 0.790800 0.445450
vt 0.820113 0.384249
vt 0.845245 0.396381
vt 0.790538 0.395179
vt 0.819780 0.382710
vt 0.845308 0.393536
vt 0.790649 0.392191
vt 0.790524 0.400210
vt 0.819225 0.400628
vt 0.845095 0.404480
vt 0.819774 0.420176
vt 0.845228 0.424293
vt 0.790604 0.427454
vt 0.820126 0.399391
vt 0.845219 0.405106
vt 0.790792 0.407633
vt 0.631810 0.421913
vt 0.631810 0.335678
vt 0.350019 0.337618
vt 0.346607 0.424900
vt 0.579389 0.509227
vt 0.399562 0.505190
vt 0.469675 0.532181
vt 0.499827 0.534321
vt 0.621173 0.449306
vt 0.359233 0.454701
vt 0.591770 0.282488
vt 0.564224 0.262577
vt 0.416891 0.261190
vt 0.389510 0.279855
vt 0.490260 0.239080
vt 0.822461 0.033140
vt 0.845643 0.010742
vt 0.791244 0.010606
vt 0.803883 0.570170
vt 0.833891 0.571322
vt 0.840289 0.014214
vt 0.799767 0.012496
vn 0.773300 -0.450300 -0.446400
vn 0.446400 -0.450300 -0.773300
vn 0.491600 0.182300 -0.851500
vn 0.851500 0.182300 -0.491600
vn 0.000000 -0.450300 -0.892900
vn -0.000000 0.182300 -0.983300
vn -0.446400 -0.450300 -0.773300
vn -0.491700 0.182300 -0.851500
vn -0.773300 -0.450300 -0.446400
vn -0.851500 0.182300 -0.491600
vn -0.892900 -0.450300 0.000000
vn -0.983300 0.182300 0.000000
vn -0.773300 -0.450300 0.446400
vn -0.851500 0.182300 0.491700
vn -0.446400 -0.450300 0.773300
vn -0.491600 0.182300 0.851500
vn 0.000000 -0.450300 0.892900
vn 0.000000 0.182300 0.983300
vn 0.446400 -0.450300 0.773300
vn 0.491700 0.182300 0.851500
vn 0.773300 -0.450300 0.446400
vn 0.851500 0.182300 0.491600
vn 0.892900 -0.450300 0.000000
vn 0.983300 0.182300 -0.000000
vn 0.041000 0.996900 0.067000
vn -0.040200 0.996900 0.067400
vn -0.000100 0.921700 0.388000
vn -0.033200 0.999300 -0.016400
vn 0.032600 0.999300 -0.017500
vn 0.041000 0.996900 -0.067000
vn -0.038300 0.996900 -0.068500
vn -0.029000 0.999600 0.000000
vn 0.029000 0.999600 0.001300
vn 0.000100 0.921700 -0.388000
vn -0.033200 0.999300 0.016400
vn 0.031300 0.999300 0.019600
vn 0.081100 0.943500 0.321300
vn 0.010400 0.999900 0.004800
vn -0.152800 0.944700 0.290300
vn 0.537000 0.774900 0.333500
vn -0.255800 0.953100 0.161700
vn -0.703700 0.691500 -0.163300
vn 0.068600 0.952100 -0.297900
vn 0.255300 0.940200 -0.225600
vn -0.280800 0.759000 -0.587400
vn 0.317500 0.948200 0.008400
vn 0.468600 0.743300 0.477400
vn 0.573200 0.751200 -0.327300
vn -0.091800 0.978600 -0.184400
vn -0.279800 0.941000 -0.190500
vn -0.680300 0.725200 0.106100
vn 0.207400 0.971800 0.112100
vn 0.501800 0.715700 -0.485800
vn -0.334100 0.712400 0.617100
vn -0.195400 0.980700 0.002300
vn -0.049400 0.739200 0.671700
vn -0.164100 0.732900 -0.660200
vn -0.324900 0.526700 0.785500
vn 0.393500 0.177800 0.902000
vn -0.844300 0.160200 0.511400
vn 0.805300 0.428600 -0.409700
vn 0.239700 0.277000 -0.930500
vn 0.957800 0.266400 0.108300
vn 0.366200 0.408100 -0.836300
vn -0.163300 0.760600 -0.628400
vn -0.842000 0.298800 -0.449200
vn -0.583700 0.807700 -0.083300
vn -0.544600 0.507100 0.668100
vn -0.706900 0.100200 -0.700200
vn 0.761500 0.515800 0.392500
vn 0.993000 0.115600 -0.024100
vn 0.167800 0.232500 0.958000
vn -0.029300 -0.990800 0.132400
vn -0.012700 -0.999900 0.003500
vn -0.002000 -1.000000 -0.004400
vn -0.171600 -0.985100 0.007200
vn 0.212600 -0.976900 0.019800
vn 0.125400 -0.974900 0.184200
vn -0.120900 -0.790100 -0.600900
vn -0.069100 -0.776900 0.625800
vn 0.160300 -0.980200 0.116500
vn 0.260200 -0.962400 0.077900
vn 0.093800 -0.984800 0.145900
vn -0.354300 -0.796000 -0.490800
vn -0.380400 -0.799900 0.464200
vn 0.123200 -0.980000 -0.156400
vn -0.412800 -0.879300 0.237500
vn 0.902900 -0.145300 -0.404600
vn 0.614000 -0.001100 0.789300
vn 0.751800 -0.280600 0.596700
vn 0.925000 0.000200 -0.380000
vn -0.051700 -0.194700 0.979500
vn -0.134900 -0.013100 0.990800
vn -0.663100 0.036400 -0.747600
vn -0.627800 -0.597500 -0.498800
vn -0.945600 -0.149500 -0.289000
vn -0.538900 -0.159200 -0.827200
vn 0.715900 -0.562800 -0.413300
vn 0.413300 -0.562800 -0.715900
vn 0.491000 0.188100 -0.850600
vn 0.850600 0.188100 -0.491100
vn 0.000000 -0.562800 -0.826600
vn -0.000100 0.188100 -0.982200
vn -0.413300 -0.562800 -0.715900
vn -0.491200 0.188100 -0.850500
vn -0.715900 -0.562800 -0.413300
vn -0.850600 0.188100 -0.491000
vn -0.826600 -0.562800 -0.000000
vn -0.982200 0.188100 0.000100
vn -0.715900 -0.562800 0.413300
vn -0.850500 0.188100 0.491200
vn -0.413300 -0.562800 0.715900
vn -0.491000 0.188100 0.850600
vn -0.000000 -0.562800 0.826600
vn 0.000100 0.188100 0.982200
vn 0.413300 -0.562800 0.715900
vn 0.491200 0.188100 0.850500
vn 0.715900 -0.562800 0.413300
vn 0.850600 0.188100 0.491000
vn 0.826600 -0.562800 -0.000000
vn 0.982200 0.188100 -0.000100
vn 0.007900 1.000000 0.000100
vn -0.005300 1.000000 0.001500
vn -0.000400 0.950100 0.312100
vn 0.026400 0.999300 0.024700
vn -0.028400 0.999400 0.021200
vn 0.007900 1.000000 -0.000100
vn 0.001300 1.000000 -0.005400
vn 0.042400 0.999100 0.000000
vn -0.042400 0.999100 0.004300
vn 0.000400 0.950100 -0.312100
vn 0.026400 0.999300 -0.024700
vn -0.032700 0.999400 -0.013900
vn 0.067100 0.967800 0.242700
vn 0.010000 0.999900 0.002400
vn -0.156400 0.951600 0.264500
vn 0.463600 0.840400 0.280700
vn -0.194100 0.973400 0.121400
vn -0.617100 0.772900 -0.147600
vn 0.044500 0.972700 -0.227600
vn 0.264300 0.945200 -0.191600
vn -0.244900 0.824800 -0.509700
vn 0.240800 0.970500 0.008000
vn 0.404700 0.813000 0.418600
vn 0.490300 0.830600 -0.263900
vn -0.082300 0.984400 -0.155600
vn -0.212600 0.966300 -0.145300
vn -0.583100 0.805900 0.102800
vn 0.174200 0.977700 0.117600
vn 0.426100 0.794300 -0.433000
vn -0.298000 0.792600 0.532000
vn -0.161000 0.986900 -0.013900
vn -0.028300 0.822500 0.568000
vn -0.123500 0.816900 -0.563400
vn -0.301600 0.614300 0.729100
vn 0.386800 0.254600 0.886300
vn -0.830900 0.238000 0.503000
vn 0.765100 0.507900 -0.395800
vn 0.233400 0.335600 -0.912600
vn 0.943700 0.310900 0.112700
vn 0.340100 0.503000 -0.794600
vn -0.137500 0.838800 -0.526800
vn -0.815300 0.382900 -0.434300
vn -0.462000 0.884600 -0.063800
vn -0.514100 0.595100 0.617700
vn -0.681700 0.224400 -0.696400
vn 0.694200 0.623500 0.359700
vn 0.980600 0.193700 -0.030600
vn 0.162600 0.319400 0.933600
vn -0.031500 -0.991100 0.129500
vn -0.015000 -0.999900 0.002400
vn -0.004200 -1.000000 -0.005500
vn -0.173700 -0.984800 0.004400
vn 0.226900 -0.973700 0.018100
vn 0.138800 -0.973400 0.182200
vn -0.107700 -0.791700 -0.601300
vn -0.056000 -0.778300 0.625300
vn 0.163900 -0.980000 0.112900
vn 0.264600 -0.961500 0.074800
vn 0.095600 -0.984700 0.146000
vn -0.352700 -0.796600 -0.490900
vn -0.378800 -0.800600 0.464300
vn 0.124900 -0.979800 -0.156400
vn -0.409700 -0.880800 0.237500
usemtl None
s 1
f 1/1/1 2/2/2 3/3/3 4/4/4
f 2/2/2 5/5/5 6/6/6 3/3/3
f 5/5/5 7/7/7 8/8/8 6/6/6
f 7/7/7 9/9/9 10/10/10 8/8/8
f 9/11/9 11/12/11 12/13/12 10/14/10
f 11/12/11 13/15/13 14/16/14 12/13/12
f 13/15/13 15/17/15 16/18/16 14/16/14
f 15/17/15 17/19/17 18/20/18 16/18/16
f 17/19/17 19/21/19 20/22/20 18/20/18
f 19/21/19 21/23/21 22/24/22 20/22/20
f 21/25/21 23/26/23 24/27/24 22/28/22
f 23/26/23 1/1/1 4/4/4 24/27/24
f 25/29/25 26/30/26 27/31/27
f 28/32/28 29/33/29 30/34/30 31/35/31
f 32/36/32 33/37/33 29/33/29 28/32/28
f 31/35/31 30/34/30 34/38/34
f 32/36/32 35/39/35 36/40/36 33/37/33
f 36/40/36 35/39/35 26/30/26 25/29/25
f 18/20/18 20/22/20 25/41/25 27/42/27
f 16/18/16 18/20/18 27/42/27 26/43/26
f 14/16/14 16/18/16 26/43/26 35/44/35
f 12/13/12 14/16/14 35/44/35 32/45/32
f 10/14/10 12/13/12 32/45/32 28/46/28
f 8/8/8 10/10/10 28/47/28 31/48/31
f 6/6/6 8/8/8 31/48/31 34/49/34
f 3/3/3 6/6/6 34/49/34 30/50/30
f 4/4/4 3/3/3 30/50/30 29/51/29
f 24/27/24 4/4/4 29/51/29 33/52/33
f 22/28/22 24/27/24 33/52/33 36/53/36
f 20/22/20 22/24/22 36/54/36 25/41/25
f 37/55/37 38/56/38 39/57/39 40/58/40
f 38/56/38 41/59/41 42/60/42 39/57/39
f 43/61/43 38/62/38 44/63/44 45/64/45
f 38/62/38 46/65/46 47/66/47 44/63/44
f 38/67/38 43/68/43 48/69/48 49/70/49
f 50/71/50 38/67/38 49/70/49 51/72/51
f 46/73/46 38/74/38 52/75/52 53/76/53
f 38/74/38 37/59/37 54/77/54 52/75/52
f 41/73/41 38/78/38 55/79/55 56/80/56
f 38/78/38 50/65/50 57/81/57 55/79/55
f 40/58/40 39/57/39 58/82/58 59/83/59
f 39/57/39 42/60/42 60/84/60 58/82/58
f 45/64/45 44/63/44 61/85/61 62/86/62
f 44/63/44 47/66/47 63/87/63 61/85/61
f 49/70/49 48/69/48 64/88/64 65/89/65
f 51/72/51 49/70/49 65/89/65 66/90/66
f 56/80/56 55/79/55 70/91/67 71/92/68
f 55/79/55 57/81/57 72/93/69 70/91/67
f 53/76/53 52/75/52 68/94/70 67/95/71
f 52/75/52 54/77/54 69/96/72 68/94/70
f 64/97/73 74/98/74 73/99/75 59/100/76
f 75/101/77 76/102/78 71/103/79 72/104/80
f 76/102/78 75/101/77 66/105/81 60/106/82
f 62/107/83 63/108/84 67/109/85 69/110/86
f 66/105/81 64/97/73 59/100/76 60/106/82
f 74/98/74 62/107/83 69/110/86 73/99/75
f 63/108/84 23/111/87 67/109/85
f 77/95/88 78/94/89 79/112/90 80/113/91
f 78/94/89 81/96/92 82/114/93 79/112/90
f 80/113/91 79/112/90 82/114/93
f 81/115/94 77/116/95 80/117/96 82/118/97
f 83/1/98 84/2/99 85/3/100 86/4/101
f 84/2/99 87/5/102 88/6/103 85/3/100
f 87/5/102 89/7/104 90/8/105 88/6/103
f 89/7/104 91/9/106 92/10/107 90/8/105
f 91/11/106 93/12/108 94/13/109 92/14/107
f 93/12/108 95/15/110 96/16/111 94/13/109
f 95/15/110 97/17/112 98/18/113 96/16/111
f 97/17/112 99/19/114 100/20/115 98/18/113
f 99/19/114 101/21/116 102/22/117 100/20/115
f 101/21/116 103/23/118 104/24/119 102/22/117
f 103/25/118 105/26/120 106/27/121 104/28/119
f 105/26/120 83/1/98 86/4/101 106/27/121
f 107/29/122 108/30/123 109/31/124
f 110/32/125 111/33/126 112/34/127 113/35/128
f 114/36/129 115/37/130 111/33/126 110/32/125
f 113/35/128 112/34/127 116/38/131
f 114/36/129 117/39/132 118/40/133 115/37/130
f 118/40/133 117/39/132 108/30/123 107/29/122
f 100/20/115 102/22/117 107/41/122 109/42/124
f 98/18/113 100/20/115 109/42/124 108/43/123
f 96/16/111 98/18/113 108/43/123 117/44/132
f 94/13/109 96/16/111 117/44/132 114/45/129
f 92/14/107 94/13/109 114/45/129 110/46/125
f 90/8/105 92/10/107 110/47/125 113/48/128
f 88/6/103 90/8/105 113/48/128 116/49/131
f 85/3/100 88/6/103 116/49/131 112/50/127
f 86/4/101 85/3/100 112/50/127 111/51/126
f 106/27/121 86/4/101 111/51/126 115/52/130
f 104/28/119 106/27/121 115/52/130 118/53/133
f 102/22/117 104/24/119 118/54/133 107/41/122
f 119/55/134 120/56/135 121/57/136 122/58/137
f 120/56/135 123/59/138 124/60/139 121/57/136
f 125/61/140 120/62/135 126/63/141 127/64/142
f 120/62/135 128/65/143 129/66/144 126/63/141
f 120/67/135 125/68/140 130/69/145 131/70/146
f 132/71/147 120/67/135 131/70/146 133/72/148
f 128/73/143 120/74/135 134/75/149 135/76/150
f 120/74/135 119/59/134 136/77/151 134/75/149
f 123/73/138 120/78/135 137/79/152 138/80/153
f 120/78/135 132/65/147 139/81/154 137/79/152
f 122/58/137 121/57/136 140/82/155 141/83/156
f 121/57/136 124/60/139 142/84/157 140/82/155
f 127/64/142 126/63/141 143/85/158 144/86/159
f 126/63/141 129/66/144 145/87/160 143/85/158
f 131/70/146 130/69/145 146/88/161 147/89/162
f 133/72/148 131/70/146 147/89/162 148/90/163
f 138/80/153 137/79/152 152/91/164 153/92/165
f 137/79/152 139/81/154 154/93/166 152/91/164
f 135/76/150 134/75/149 150/94/167 149/95/168
f 134/75/149 136/77/151 151/96/169 150/94/167
f 146/97/170 156/98/171 155/99/172 141/100/173
f 157/101/174 158/102/175 153/103/176 154/104/177
f 158/102/175 157/101/174 148/105/178 142/106/179
f 144/107/180 145/108/181 149/109/182 151/110/183
f 148/105/178 146/97/170 141/100/173 142/106/179
f 156/98/171 144/107/180 151/110/183 155/99/172
f 145/108/181 105/111/184 149/109/182
o basic_table_coll
v 0.180728 -0.021873 -0.436317
v -0.180728 -0.021873 -0.436317
v -0.456669 1.408964 -1.102495
v 0.456669 1.408964 -1.102495
v -0.436317 -0.021873 -0.180728
v -1.102495 1.408964 -0.456669
v -0.436317 -0.021873 0.180728
v -1.102495 1.408964 0.456669
v -0.180728 -0.021873 0.436317
v -0.456669 1.408964 1.102496
v 0.180728 -0.021873 0.436317
v 0.456669 1.408964 1.102496
v 0.436317 -0.021873 0.180728
v 1.102495 1.408964 0.456669
v 0.436317 -0.021873 -0.180728
v 1.102495 1.408964 -0.456669
vt 0.375000 0.312500
vt 0.406250 0.312500
vt 0.406250 0.688440
vt 0.375000 0.688440
vt 0.437500 0.312500
vt 0.437500 0.688440
vt 0.468750 0.312500
vt 0.468750 0.688440
vt 0.500000 0.312500
vt 0.500000 0.688440
vt 0.531250 0.312500
vt 0.531250 0.688440
vt 0.562500 0.312500
vt 0.562500 0.688440
vt 0.593750 0.312500
vt 0.593750 0.688440
vt 0.625000 0.312500
vt 0.625000 0.688440
vt 0.610485 0.266735
vt 0.610485 0.045765
vt 0.656250 0.156250
vt 0.389515 0.733265
vt 0.500000 1.000000
vt 0.389515 0.954235
vt 0.343750 0.843750
vt 0.389515 0.266735
vt 0.500000 0.000000
vt 0.343750 0.156250
vt 0.389515 0.045765
vt 0.656250 0.843750
vt 0.610485 0.954235
vt 0.500000 0.687500
vt 0.610485 0.733265
vn 0.000000 -0.422100 -0.906600
vn -0.641000 -0.422100 -0.641000
vn -0.906600 -0.422100 -0.000000
vn -0.641000 -0.422100 0.641000
vn 0.000000 -0.422100 0.906600
vn 0.641000 -0.422100 0.641000
vn 0.906600 -0.422100 -0.000000
vn 0.641000 -0.422100 -0.641000
vn -0.000000 -1.000000 -0.000000
vn 0.000000 1.000000 0.000000
usemtl None_NONE
s off
f 159/119/185 160/120/185 161/121/185 162/122/185
f 160/120/186 163/123/186 164/124/186 161/121/186
f 163/123/187 165/125/187 166/126/187 164/124/187
f 165/125/188 167/127/188 168/128/188 166/126/188
f 167/127/189 169/129/189 170/130/189 168/128/189
f 169/129/190 171/131/190 172/132/190 170/130/190
f 171/131/191 173/133/191 174/134/191 172/132/191
f 173/133/192 159/135/192 162/136/192 174/134/192
s 1
f 171/137/193 169/127/193 159/138/193 173/139/193
f 168/140/194 161/141/194 164/142/194 166/143/194
f 159/138/193 169/127/193 167/144/193 160/145/193
f 160/145/193 167/144/193 165/146/193 163/147/193
f 174/148/194 162/149/194 170/150/194 172/151/194
f 170/150/194 162/149/194 161/141/194 168/140/194
o pivot3
v -0.050000 -0.050000 -0.050300
v -0.050000 0.050000 -0.050300
v 0.050000 0.050000 -0.050300
v 0.050000 -0.050000 -0.050300
v -0.050000 -0.050000 0.049700
v 0.050000 -0.050000 0.049700
v 0.050000 0.050000 0.049700
v -0.050000 0.050000 0.049700
vt 1.000000 0.000000
vt 1.000000 0.100000
vt 0.900000 0.100000
vt 0.900000 0.000000
vt 0.000000 0.000000
vt 0.100000 0.000000
vt 0.100000 0.100000
vt 0.000000 0.100000
vn 0.000000 0.000000 -1.000000
vn 0.000000 -0.000000 1.000000
vn 0.000000 -1.000000 -0.000000
vn 1.000000 -0.000000 0.000000
vn 0.000000 1.000000 0.000000
vn -1.000000 -0.000000 0.000000
usemtl None_NONE
s off
f 175/152/195 176/153/195 177/154/195 178/155/195
f 179/156/196 180/157/196 181/158/196 182/159/196
f 175/156/197 178/157/197 180/158/197 179/159/197
f 178/156/198 177/157/198 181/158/198 180/159/198
f 177/156/199 176/157/199 182/158/199 181/159/199
f 176/156/200 175/157/200 179/158/200 182/159/200
