# Blender v2.74 (sub 0) OBJ File: 'picture_frame_1x1.blend'
# www.blender.org
mtllib picture_frame_1x1.mtl
o 0picture_frame_1x1
v -1.200000 2.400000 0.060000
v -1.200000 2.400000 -0.060000
v -1.200000 0.000000 -0.060000
v -1.200000 -0.000000 0.060000
v 1.200000 2.400000 -0.060000
v 1.200000 0.000000 -0.060000
v 1.200000 2.400000 0.060000
v 1.200000 -0.000000 0.060000
vt 0.000000 1.000000
vt 0.085705 1.000000
vt 0.085705 0.000000
vt 0.000000 0.000000
vt 1.000000 1.000000
vt 1.000000 0.000000
vt 0.914180 1.000000
vt 0.914180 0.000000
vt -0.000000 0.081836
vt 1.000000 0.081836
vt 1.000000 0.913743
vt 0.000000 0.913743
vn -1.000000 0.000000 0.000000
vn 0.000000 0.000000 -1.000000
vn 1.000000 0.000000 0.000000
vn 0.000000 -0.000000 1.000000
vn 0.000000 -1.000000 -0.000000
vn 0.000000 1.000000 0.000000
usemtl None
s 1
f 1/1/1 2/2/1 3/3/1 4/4/1
f 2/1/2 5/5/2 6/6/2 3/4/2
f 5/5/3 7/7/3 8/8/3 6/6/3
f 7/5/4 1/1/4 4/4/4 8/6/4
f 4/9/5 3/4/5 6/6/5 8/10/5
f 7/5/6 5/11/6 2/12/6 1/1/6
o 1picture_frame_1x1_coll
v -1.200000 2.400000 0.060000
v -1.200000 2.400000 -0.060000
v -1.200000 0.000000 -0.060000
v -1.200000 -0.000000 0.060000
v 1.200000 2.400000 -0.060000
v 1.200000 0.000000 -0.060000
v 1.200000 2.400000 0.060000
v 1.200000 -0.000000 0.060000
vt 0.417800 0.471129
vn -1.000000 0.000000 0.000000
vn 0.000000 0.000000 -1.000000
vn 1.000000 0.000000 0.000000
vn 0.000000 -0.000000 1.000000
vn 0.000000 -1.000000 -0.000000
vn 0.000000 1.000000 0.000000
usemtl None_NONE
s 1
f 9/13/7 10/13/7 11/13/7 12/13/7
f 10/13/8 13/13/8 14/13/8 11/13/8
f 13/13/9 15/13/9 16/13/9 14/13/9
f 15/13/10 9/13/10 12/13/10 16/13/10
f 12/13/11 11/13/11 14/13/11 16/13/11
f 15/13/12 13/13/12 10/13/12 9/13/12
o 2pivot
v -0.050000 -0.050000 -0.050300
v -0.050000 0.050000 -0.050300
v 0.050000 0.050000 -0.050300
v 0.050000 -0.050000 -0.050300
v -0.050000 -0.050000 0.049700
v 0.050000 -0.050000 0.049700
v 0.050000 0.050000 0.049700
v -0.050000 0.050000 0.049700
vt 1.000000 0.000000
vt 1.000000 0.100000
vt 0.900000 0.100000
vt 0.900000 0.000000
vt 0.000000 0.000000
vt 0.100000 0.000000
vt 0.100000 0.100000
vt 0.000000 0.100000
vn 0.000000 0.000000 -1.000000
vn 0.000000 -0.000000 1.000000
vn 0.000000 -1.000000 -0.000000
vn 1.000000 -0.000000 0.000000
vn 0.000000 1.000000 0.000000
vn -1.000000 -0.000000 0.000000
usemtl None_NONE
s 1
f 17/14/13 18/15/13 19/16/13 20/17/13
f 21/18/14 22/19/14 23/20/14 24/21/14
f 17/18/15 20/19/15 22/20/15 21/21/15
f 20/18/16 19/19/16 23/20/16 22/21/16
f 19/18/17 18/19/17 24/20/17 23/21/17
f 18/18/18 17/19/18 21/20/18 24/21/18
